<?xml version="1.0" encoding="UTF-8"?>
<svg id="Ebene_2" data-name="Ebene 2" xmlns="http://www.w3.org/2000/svg" viewBox="0 0 142.86 160.87">
  <defs>
    <style>
      .cls-1 {
        fill: #f75663;
      }

      .cls-2 {
        fill: #fff;
      }
    </style>
  </defs>
  <g id="Logo">
    <path class="cls-2" d="m79.91,93.19l13.53-23.14c.98-1.93-.37-4.28-2.4-4.17l-15.04.64c-.98.02-5.46.18-6.04,1.18s-1.87,5.45-2.13,6.22c-.39,1.16.13,2.59.44,3.08l8.53,16.36c.82,1.26,2.4,1.17,3.09-.18Z"/>
    <path class="cls-2" d="m105.47,85.97l9.46-17.02c.35-.62-.04-1.42-.71-1.47-2.86-.26-5.94-.6-8.39-.84-2.7-.25-4.61-.5-7.65-.68-.86-.05-1.23.1-1.56.61-.48.7-.29.97-.03,1.59l7.3,17.7c.29.71,1.2.77,1.58.1Z"/>
    <path class="cls-2" d="m64.94,71.22c.65-2.26,1.18-3.59-1.09-3.59-.88,0-17.03,1.32-17.03,1.32-.83.07-1.28,1.08-.83,1.84l10.97,18.25c.41.68,1.35.6,1.65-.15,0,0,5.9-16.19,6.33-17.66Z"/>
    <path class="cls-2" d="m38.13,70.4l-11.98,1.79c-.72.11-1.07,1.01-.64,1.66l14.48,21.69c.45.67,1.4.53,1.66-.25l4.38-12.74c.67-1.96.36-4.15-.8-5.81s-2.25-3.15-3.39-4.71c-.89-1.21-2.3-1.83-3.71-1.62Z"/>
    <path class="cls-1" d="m97.46,98.87c0-3.06-.25-9.43-4.39-9.43-4.73,0-4.99,2.96-6.98,5.74-2.88,4.02-5.31,7.84-8.03,7.84-4.08-.01-9.15-14.2-12.07-14.2s-3.51,6.47-6.11,10.03c-.18.23-.92.57-1.35.65-2.14.42-3.62-5.7-6.45-5.33-2.57.33-.61,15.1.9,22.65,1.52,7.56,9.41,16.95,27.84,16.71,18.42-.24,16.64-31.62,16.64-34.67Zm-22.3,28.17c-2.46-.61-2.66-2.41-2.7-3.75-.13-5.57.13-5.61-.01-11.18-.04-1.43.31-3.65,2.25-2.89s1.72,1.93,1.86,3.24c.26,2.52,1.21,6.2,1.35,11.77.03,1.43-.31,3.41-2.75,2.8Z"/>
    <path class="cls-2" d="m35.95,35.62c1.84-.26,20,14.41,20,14.41.69.71.06,1.9-.63,2.6l-4.57,5.21c-.68.71-1.1,1.41-1.78.71,0,0-9.16-10.97-10.49-10.83s-3.81,10.98-3.81,10.98c-.45,1.22-1.71.91-2.89.45-1.21-.65-4.63-1.11-3.85-3.15,0,0,6.18-20.11,8.02-20.37Z"/>
    <path class="cls-2" d="m107.12,50.75c-1.58.06-8.63-15.21-10.62-14.88s-7.06,13.31-7.06,13.31c-.89,1.35-1.95,1.81-3.28.89l-4.85-2.32c-1.33-.93-.57-2.09.32-3.43,0,0,12.76-24.09,15.09-23.85s16.72,20.9,16.72,20.9c.65,1.06,2.22,3.19,1.65,4.69s-6.4,4.64-7.98,4.7Z"/>
    <path class="cls-2" d="m19.98,68.33c-6.27-15.35-9.91-27.34-15.2-43.12-2.13-6.35-6.34-7.01-4.18-.56,5.58,16.65,10.26,31.23,15.08,48.16.39,1.37,2.15,3.95,3.7,3.4s1.9-4.69.6-7.87Z"/>
    <path class="cls-2" d="m135.7,0c-16.39,1.1-33.89,2.93-50.12,5.65-16.17,2.71-37.62,6.58-53.49,10.91-8.96,2.44-6.77,1.34-17.83,5.94-2.92,1.21-7.52,5.27-4.44,4.47,16.81-4.41,30.76-7.69,49.34-10.71,16.02-2.6,44.24-5.78,60.55-6.68,9.15-.5,19.63.32,22.44-2.51S138.85-.2,135.7,0Z"/>
    <path class="cls-2" d="m119.34,71.46c-.02,6.2,3.77,11.35,5.3,1.91s6.31-33.58,10.68-51.72c1.25-5.21,2.52-10.68,3.7-15.91.75-3.33-2-4.48-2.76-1.15l-16.93,66.87Z"/>
    <path class="cls-2" d="m122.14,108.04c-.73-4.68-1.98-9.27-2.75-13.95-.76-4.63-4.32-9.46-3.37,3.32l3.8,51.51c-.33-.21-.71-.35-1.18-.37-24.17-.99-53.39-3.6-64.93-4.82-11.54-1.21-24.07-1.05-24.07-1.05-5.62-.32-5.83,2.39-6.45,2.68,1.73-16.27.74-4.01,2.13-20.32.12-1.43,3.23-31.05.52-33.44s-2.98,8.81-3.11,10.25c-1.69,19.83-2.99,27.95-5.17,47.72-.16,1.43,1.25,6.76,2.46,6.76,1.45,0,2.29-1.23,2.45-2.66.14-1.28.27-2.56.41-3.85.76.14,1.68.23,2.79.24,10.97.08,48.35,1.98,72.52,2.97l20.44.84c.63.03,1.13-.17,1.51-.5l.25,3.33c.11,1.28,2.55,4.18,3.96,4.18,1.24,0,2.56-1.09,2.45-2.37-1.46-16.83-2.05-33.74-4.66-50.46Z"/>
  </g>
</svg>