<?xml version="1.0" encoding="UTF-8"?>
<svg id="Ebene_2" data-name="Ebene 2" xmlns="http://www.w3.org/2000/svg" viewBox="0 0 428.26 110.46">
  <defs>
    <style>
      .cls-1 {
        stroke-width: .11px;
      }

      .cls-1, .cls-2, .cls-3, .cls-4, .cls-5 {
        stroke: #231f20;
        stroke-miterlimit: 10;
      }

      .cls-1, .cls-4, .cls-5 {
        fill: #fff;
      }

      .cls-6 {
        fill: #f75663;
      }

      .cls-2 {
        fill: none;
      }

      .cls-2, .cls-3, .cls-4 {
        stroke-width: .11px;
      }

      .cls-3 {
        fill: #f4f4f4;
      }

      .cls-5 {
        stroke-width: .1px;
      }
    </style>
  </defs>
  <g id="Logo">
    <line class="cls-2" x1="29.05" y1="98.81" x2="29.03" y2="98.62"/>
    <polygon class="cls-1" points="63.91 14.89 62.86 110.39 48.66 107.63 52.05 38.57 39.92 65.7 32.65 63.82 18.51 43.27 25.77 98.32 12.84 102.73 .06 1.55 7.9 .06 36.93 45.67 51.1 11.61 63.91 14.89"/>
    <path class="cls-3" d="m89.41,24.78l-20.38,19.13,8.9,66.42,29.81-21.74-18.32-63.81Zm-10.46,30.09l8.88-9.12,8.48,35.1-12.01,11.13-5.35-37.11Z"/>
    <polygon class="cls-3" points="140.34 94.73 116.12 53.37 126.5 97.11 117.04 104.02 104.24 38.01 112.37 31.83 137.48 66.65 136.13 28.74 146.68 25.2 147.9 89.45 140.34 94.73"/>
    <line class="cls-2" x1="117.11" y1="50.97" x2="117.11" y2="50.96"/>
    <line class="cls-2" x1="117.11" y1="50.97" x2="117.11" y2="50.96"/>
    <line class="cls-2" x1="158.58" y1="28.53" x2="158.57" y2="28.53"/>
    <polygon class="cls-5" points="179.68 55.12 183.07 104.02 149.54 100.38 154.7 88.28 173.33 91.32 171.9 69.34 153.72 72.82 156.38 38.35 183.88 28.53 182.26 39.48 167.18 46.79 166.21 58.69 179.68 55.12"/>
    <polyline class="cls-2" points="175.53 89.42 175.54 89.42 175.73 89.45"/>
    <line class="cls-2" x1="175.54" y1="89.42" x2="175.53" y2="89.42"/>
    <polygon class="cls-4" points="222.44 33.13 220.36 45.08 210.56 44.48 210.16 105.89 197.39 102.38 200.18 43.97 188.62 43.13 188.92 31.85 222.44 33.13"/>
    <polygon class="cls-4" points="232.86 48.65 232.12 62.22 244.7 62.11 244.29 69.25 230.79 74.36 230.51 85.45 251.77 83.8 250.15 95.72 222.74 102.01 226.37 33.17 255.26 37.87 254.13 50.29 232.86 48.65"/>
    <line class="cls-2" x1="293.15" y1="55.08" x2="292.66" y2="54.63"/>
    <path class="cls-4" d="m293.27,65.83l-.61-11.2-27.91-25.64-10.11,74.31,8.38,1.98,4.14-25.22,8.9-4.74v30.07l15.89-4.18-6.5-28.53,7.82-6.86Zm-24.03,2.02l2.16-18.24,11.48,10.35-13.65,7.9Z"/>
    <line class="cls-6" x1="343.19" y1="96.03" x2="343.13" y2="96.04"/>
    <path class="cls-6" d="m336.78,67.98l-4.99-6.58.68-25.73-25.7-21.27-18.07-2.11,8.58,10.49,8.61,80.23,37.25-6.97-6.35-28.06Zm-26.34-35.6l13.44,12.01-.23,12.86h0s-10.89,11.67-10.89,11.67l-2.32-36.53Zm4.42,54.26l11.94-17.75,4.17,19.74-15.69-1.04c-.46-.03-.71-.57-.42-.94Z"/>
    <path class="cls-6" d="m346.26,34.87l-5.27,31.23,19.02,38.14,12.39-6.26,12.17-40.55-38.32-22.56Zm14.77,52.66l-10.52-23.3,1.43-14.62,20.46,11.03-11.37,26.89Z"/>
    <polygon class="cls-6" points="408.33 68.76 428.26 102.15 413.6 104.51 403.26 78.95 392.04 103.22 381.82 99.98 397.71 67.83 378.48 38.38 387.44 34.36 401.96 58.71 417.54 29.73 426.12 31.85 408.33 68.76"/>
  </g>
</svg>