<?xml version="1.0" encoding="UTF-8" standalone="no"?>
<!-- Created with Inkscape (http://www.inkscape.org/) -->

<svg
   version="1.1"
   id="svg2"
   width="258.23999"
   height="62.080002"
   viewBox="0 0 258.23999 62.080002"
   sodipodi:docname="Text.png"
   xmlns:inkscape="http://www.inkscape.org/namespaces/inkscape"
   xmlns:sodipodi="http://sodipodi.sourceforge.net/DTD/sodipodi-0.dtd"
   xmlns="http://www.w3.org/2000/svg"
   xmlns:svg="http://www.w3.org/2000/svg">
  <defs
     id="defs6" />
  <sodipodi:namedview
     id="namedview4"
     pagecolor="#ffffff"
     bordercolor="#000000"
     borderopacity="0.25"
     inkscape:showpageshadow="2"
     inkscape:pageopacity="0.0"
     inkscape:pagecheckerboard="true"
     inkscape:deskcolor="#d1d1d1"
     showgrid="false" />
  <g
     inkscape:groupmode="layer"
     inkscape:label="Image"
     id="g8">
    <path
       style="opacity:1;fill:#ffffff;fill-opacity:1;stroke:none;stroke-opacity:1"
       d="M 0.44194174,1.1490485 8.131728,57.540814 15.998291,54.977552 12.197592,25.544233 20.506097,36.150834 24.483572,36.857941 31.819805,21.566757 29.875262,59.9273 38.360543,61.51829 39.06765,8.4852814 31.112698,6.7175144 22.98097,25.455844 4.8613591,0.44194174 Z"
       id="path3186" />
    <path
       id="path4640"
       style="opacity:1;fill:#ffffff;fill-opacity:1;stroke:none;stroke-opacity:1"
       d="m 53.960938,14.451172 -10.341797,11.490234 3.404297,35.753906 18.11914,-11.933593 z m -0.972657,11.623047 5.126953,19.402343 -6.849609,6.408204 -2.519531,-18.738282 z" />
    <path
       style="opacity:1;fill:#ffffff;fill-opacity:1;stroke:none;stroke-opacity:1"
       d="M 70.533902,57.938562 76.323338,54.358834 69.56163,28.991378 86.355416,52.458484 89.05126,50.204582 88.565125,14.230524 82.112775,16.263456 81.715028,34.294679 67.617086,17.942835 62.844115,21.213203 Z"
       id="path5370" />
    <path
       style="opacity:1;fill:#ffffff;fill-opacity:1;stroke:none;stroke-opacity:1"
       d="m 93.470678,48.17165 -3.049398,7.557203 20.10835,2.474874 -1.98874,-31.289475 -7.99914,2.032932 0.39774,-7.424621 9.104,-4.684583 1.06066,-6.9826792 -16.528618,6.1871842 -1.635184,23.201941 10.429822,-2.342291 1.41422,13.12567 z"
       id="path5372" />
    <path
       style="opacity:1;fill:#ffffff;fill-opacity:1;stroke:none;stroke-opacity:1"
       d="m 117.86586,57.054679 7.99915,2.209708 1.63518,-34.073708 h 4.50781 l 1.01646,-6.408155 -20.15254,-0.839689 -0.0442,6.098796 6.7617,0.53033 z"
       id="path5374" />
    <path
       style="opacity:1;fill:#ffffff;fill-opacity:1;stroke:none;stroke-opacity:1"
       d="m 133.33382,56.96629 16.66121,-3.447145 0.97227,-6.717515 -12.9047,1.016466 0.13258,-6.319767 8.13173,-2.695844 0.35355,-3.977476 -7.5572,-0.176777 0.30936,-7.380427 12.99309,0.928078 0.7071,-6.805903 -17.63347,-2.828427 z"
       id="path5376" />
    <path
       id="path5378"
       style="opacity:1;fill:#ffffff;fill-opacity:1;stroke:none;stroke-opacity:1"
       d="m 158.92188,16.529297 -6.2754,41.1875 5.21485,1.060547 2.43164,-14.140625 5.25781,-2.298828 0.0898,16.439453 9.63282,-2.164063 -3.88867,-15.910156 4.68554,-3.712891 -0.2207,-6.363281 z m 3.93359,11.533203 6.84961,5.347656 -7.99805,4.375 c 0,-0.176777 1.14844,-9.722656 1.14844,-9.722656 z" />
    <path
       id="path5382"
       style="opacity:1;fill:#cf3b74;fill-opacity:1;stroke:none;stroke-opacity:1"
       d="m 173.46289,6.9394531 5.30273,5.9218749 5.03711,44.679688 22.62891,-3.845704 -4.33203,-16.263671 -2.65039,-3.003907 0.5293,-14.27539 -15.77735,-11.8886721 z m 13.08008,11.4902349 8.17578,6.408203 -0.043,7.115234 -6.80664,6.408203 z m 10.0332,21.125 2.38672,10.03125 -10.12109,-0.619141 z" />
    <path
       id="path5388"
       style="opacity:1;fill:#cf3b74;fill-opacity:1;stroke:none;stroke-opacity:1"
       d="m 208.28711,19.798828 -3.13867,17.191406 11.49218,21.302735 7.42383,-3.404297 7.42383,-22.582031 z m 3.35937,7.955078 12.55079,6.275391 -7.02735,14.894531 -6.45117,-12.90625 z" />
    <path
       style="opacity:1;fill:#cf3c74;fill-opacity:1;stroke:none;stroke-opacity:1"
       d="m 248.94578,58.380504 9.01561,-1.37002 -12.1092,-18.473164 10.87177,-20.727068 -5.25911,-1.149048 -9.32497,16.086679 -8.79464,-13.611806 -5.43589,2.43068 11.53468,16.396038 -9.63433,17.766058 6.23138,1.988738 6.67332,-13.302446 z"
       id="path5394" />
  </g>
</svg>
