<?xml version="1.0" standalone="no"?>
<!DOCTYPE svg PUBLIC "-//W3C//DTD SVG 20010904//EN"
 "http://www.w3.org/TR/2001/REC-SVG-20010904/DTD/svg10.dtd">
<svg version="1.0" xmlns="http://www.w3.org/2000/svg"
 width="400.000000pt" height="400.000000pt" viewBox="0 0 400.000000 400.000000"
 preserveAspectRatio="xMidYMid meet">
<metadata>
Created by potrace 1.14, written by Peter Selinger 2001-2017
</metadata>
<g transform="translate(0.000000,400.000000) scale(0.100000,-0.100000)"
fill="#000000" stroke="none">
<path d="M1860 3994 c-19 -2 -77 -9 -129 -15 -122 -14 -306 -59 -429 -105
-675 -253 -1162 -838 -1281 -1543 -30 -176 -30 -486 0 -662 106 -627 506
-1167 1074 -1451 201 -101 418 -169 635 -199 122 -17 408 -17 530 0 783 109
1426 657 1653 1411 60 196 81 346 81 570 0 224 -21 374 -81 570 -224 743 -853
1289 -1621 1405 -97 15 -366 27 -432 19z m1425 -607 c44 -25 72 -65 62 -91 -4
-10 -25 -25 -47 -34 l-39 -17 -80 -325 c-44 -179 -101 -426 -127 -550 -26
-124 -52 -243 -58 -265 -20 -73 -61 -51 -87 46 -12 45 -9 58 111 485 68 241
133 477 146 523 l24 84 -184 -7 c-219 -7 -368 -21 -951 -86 -554 -62 -637 -76
-1072 -182 -95 -23 -176 -38 -180 -35 -12 13 30 47 84 67 86 32 438 125 678
180 468 105 894 170 1405 214 234 20 268 19 315 -7z m-2593 -356 c13 -15 35
-57 47 -92 76 -210 191 -511 236 -616 60 -139 71 -186 52 -223 -34 -67 -82
-19 -126 127 -18 59 -85 264 -148 455 -64 190 -113 354 -110 362 9 23 22 20
49 -13z m1850 -38 c54 -58 229 -274 262 -325 29 -44 18 -78 -35 -110 -25 -16
-61 -31 -81 -34 l-36 -6 -83 123 c-61 89 -90 124 -104 124 -16 0 -34 -27 -81
-120 -44 -89 -65 -121 -81 -123 -27 -4 -137 49 -141 69 -2 14 114 214 191 329
55 81 98 130 116 130 10 0 43 -26 73 -57z m-1076 -289 c155 -104 244 -172 244
-185 0 -14 -120 -139 -133 -139 -6 0 -55 44 -110 97 l-99 98 -13 -25 c-8 -14
-24 -60 -36 -102 -13 -43 -29 -80 -38 -83 -19 -7 -112 26 -118 42 -6 14 14 78
68 218 45 115 73 165 93 165 8 0 72 -39 142 -86z m936 -461 c10 -9 18 -23 18
-32 0 -21 -260 -431 -281 -444 -9 -6 -23 -8 -32 -4 -21 8 -188 305 -189 336 0
15 9 52 21 83 21 55 24 57 64 63 50 6 135 10 276 13 85 2 108 -1 123 -15z
m238 6 c164 -12 180 -15 180 -33 0 -24 -186 -321 -200 -321 -14 0 -158 305
-159 336 -2 33 -5 33 179 18z m-760 -44 c0 -40 -131 -365 -147 -365 -14 0
-222 309 -231 342 -2 10 2 20 9 23 18 6 214 22 302 24 65 1 67 0 67 -24z
m-443 -57 c49 -52 83 -108 83 -139 0 -47 -91 -279 -109 -279 -9 0 -74 80 -151
187 -159 219 -155 212 -142 225 12 12 158 35 233 37 50 1 58 -2 86 -31z m485
-315 c14 -16 49 -63 78 -106 57 -84 92 -117 122 -117 27 0 100 71 154 151 39
56 55 72 86 81 29 8 44 8 64 0 43 -20 54 -66 54 -224 -1 -288 -70 -457 -212
-518 -47 -20 -64 -22 -163 -17 -227 10 -389 98 -450 243 -29 70 -65 354 -51
408 10 41 43 33 91 -20 37 -43 43 -46 64 -35 13 8 36 41 53 79 32 71 54 102
73 102 6 0 23 -12 37 -27z m1003 -163 c43 -194 68 -387 97 -752 24 -307 23
-318 -26 -318 -38 1 -86 55 -86 97 0 19 -5 23 -31 23 -29 0 -1355 52 -1666 65
l-143 6 0 -36 c0 -50 -16 -75 -46 -75 -19 0 -28 8 -40 37 -21 50 -20 82 16
363 17 135 42 347 55 471 12 125 28 236 34 248 16 29 39 26 52 -6 22 -56 -6
-536 -49 -845 l-8 -56 23 15 c36 24 331 17 738 -17 193 -16 467 -36 610 -44
143 -9 302 -18 353 -21 72 -5 92 -3 92 7 0 7 -16 207 -35 443 -38 468 -41 555
-23 573 26 26 47 -20 83 -178z"/>
<path d="M2017 1493 c-4 -3 -7 -64 -7 -135 0 -115 2 -130 20 -148 21 -21 37
-24 64 -14 12 5 16 20 16 63 0 61 -22 211 -34 229 -8 13 -48 16 -59 5z"/>
</g>
</svg>
